<svg id="project" xmlns="http://www.w3.org/2000/svg" width="54.975" height="49.536" viewBox="0 0 54.975 49.536">
  <g id="Path_320" data-name="Path 320" fill="none">
    <path d="M0,0H50.691a4.3,4.3,0,0,1,4.284,4.307V49.536H4.284A4.3,4.3,0,0,1,0,45.228Z" stroke="none"/>
    <path d="M 3.999992370605469 4 L 3.999992370605469 45.22823333740234 C 3.999992370605469 45.39776611328125 4.127281188964844 45.53569030761719 4.283737182617188 45.53569030761719 L 50.97460556030273 45.53569030761719 L 50.97460556030273 45.51523590087891 L 50.97460556030273 4.307445526123047 C 50.97460556030273 4.137924194335938 50.84732818603516 4 50.69087219238281 4 L 3.999992370605469 4 M -7.62939453125e-06 0 L 50.69087219238281 0 C 53.05671691894531 0 54.97460556030273 1.928512573242188 54.97460556030273 4.307445526123047 L 54.97460556030273 45.51523590087891 L 54.97460556030273 49.53569030761719 L 4.283737182617188 49.53569030761719 C 1.917892456054688 49.53569030761719 -7.62939453125e-06 47.607177734375 -7.62939453125e-06 45.22823333740234 L -7.62939453125e-06 0 Z" stroke="none" fill="#fff"/>
  </g>
  <path id="Path_321" data-name="Path 321" d="M0,0-.008,49.032" transform="translate(12.84 0.036)" fill="none" stroke="#fff" stroke-width="2"/>
  <line id="Line_30" data-name="Line 30" y2="49" transform="translate(52.475 10.735) rotate(90)" fill="none" stroke="#fff" stroke-width="2"/>
</svg>
