<svg id="Layer_1" data-name="Layer 1" xmlns="http://www.w3.org/2000/svg" viewBox="0 0 572 328.98"><defs><style>.cls-1{fill:#231f20;}</style></defs><path class="cls-1" d="M34.92,0H404.36A3.66,3.66,0,0,1,408,3.66V325.15a3.83,3.83,0,0,1-3.83,3.83H35a4,4,0,0,1-4-4V3.91A3.91,3.91,0,0,1,34.92,0Z"/><polygon class="cls-1" points="420.24 121.33 541.57 37.46 542.38 280.93 421.05 199.5 420.24 121.33"/><path class="cls-1" d="M26.6,329.36l.17,44.6-11.44.17S8,373,7,363.33l.06-26.21s.8-6,8.33-7.71Z" transform="translate(-7 -253.92)"/><rect class="cls-1" x="551.24" y="36.13" width="20.76" height="246.12"/></svg>