<svg id="Layer_1" data-name="Layer 1" xmlns="http://www.w3.org/2000/svg" viewBox="0 0 565.69 513"><defs><style>.cls-1{fill:#231f20;stroke:#fff;stroke-miterlimit:10;}</style></defs><g id="Subtraction_1" data-name="Subtraction 1"><path class="cls-1" d="M581.47,648H17c15.8-81,68.26-151.77,143.65-192.13l23.12-12.38-17.87-19.2a169.36,169.36,0,0,1-45.82-115.61,167,167,0,0,1,13.91-67,171.86,171.86,0,0,1,38.08-54.89,178.08,178.08,0,0,1,56.68-37.14,184.16,184.16,0,0,1,139.11,0,178,178,0,0,1,56.67,37.14,171.89,171.89,0,0,1,38.09,54.89,167,167,0,0,1,13.91,67,169.36,169.36,0,0,1-45.27,115L413.47,443l23.19,12.28C512.7,495.52,565.6,566.49,581.47,648Z" transform="translate(-16.39 -135.5)"/></g></svg>